<svg xmlns="http://www.w3.org/2000/svg" viewBox="0 0 64 64">
<circle cx="32" cy="32" r="32" fill="#141618"/>
<path transform="translate(18.96,46.44) scale(0.04096,-0.04096)" d="M349 -6V-87H285V-5Q179 4 114.0 58.5Q49 113 45 207H227Q233 147 285 130V288Q207 308 160.5 327.0Q114 346 79.0 388.0Q44 430 44 503Q44 594 111.5 649.0Q179 704 285 711V792H349V711Q454 703 515.0 650.0Q576 597 583 503H400Q394 557 349 573V418Q432 395 477.0 377.0Q522 359 557.5 317.5Q593 276 593 204Q593 149 564.5 102.5Q536 56 480.5 26.5Q425 -3 349 -6ZM285 439V578Q257 573 241.0 556.5Q225 540 225 511Q225 486 240.5 469.0Q256 452 285 439ZM414 198Q414 224 397.5 240.5Q381 257 349 269V127Q379 132 396.5 151.0Q414 170 414 198Z" fill="#F2C900"/>
</svg>